# xmcd
# 
# Track frame offsets:
#     187
#     23800
#     47550
#     71472
#     97400
#     129190
#     146350
#     167190
# 
# Disc length: 2453
# 
# Revision: 0
# Processed by: cddbd v1.5.2PL0 Copyright (c) Steve Scherf et al.
# Submitted via: BonkEnc v1.0
# 
DISCID=69099308
DTITLE=Mal Waldron - All Alone
DYEAR=1966
DGENRE=Jazz
TTITLE0=All Alone
TTITLE1=Due Torri
TTITLE2=A View of S.Luca
TTITLE3=Blue Summer
TTITLE4=If You Think I'm Licked
TTITLE5=Three For Cicci
TTITLE6=Mosque Raid
TTITLE7=Waltz of Oblivious
EXTD=YEAR: 1966
EXTT0=
EXTT1=
EXTT2=
EXTT3=
EXTT4=
EXTT5=
EXTT6=
EXTT7=
PLAYORDER=
